<?xml version="1.0" encoding="utf-8"?>
<!-- Generator: Adobe Illustrator 25.2.1, SVG Export Plug-In . SVG Version: 6.00 Build 0)  -->
<svg version="1.1" id="Capa_1" xmlns="http://www.w3.org/2000/svg" xmlns:xlink="http://www.w3.org/1999/xlink" x="0px" y="0px"
	 viewBox="0 0 23.6 23.6" style="enable-background:new 0 0 23.6 23.6;" xml:space="preserve">
<style type="text/css">
	.st0{fill:#c5003e;}
	.st1{fill:none;}
	.st2{enable-background:new    ;}
	.st3{fill:#FFFFFF;}
</style>
<g>
	<circle class="st0" cx="11.8" cy="11.8" r="11.8"/>
</g>
<g>
	<rect x="6.2" y="5.1" class="st1" width="11.2" height="13.3"/>
</g>
<g class="st2">
	<path class="st3" d="M3.7,9.5V8C4.4,8,4.9,8,5.2,7.9C5.7,7.8,6,7.6,6.3,7.3c0.2-0.2,0.3-0.5,0.4-0.8C6.8,6.3,6.8,6.1,6.8,6h1.9
		v11.3H6.4V9.5H3.7z"/>
	<path class="st3" d="M12.6,15.1c0.3-0.8,1.1-1.6,2.3-2.4c1-0.7,1.7-1.3,2-1.6c0.5-0.5,0.7-1,0.7-1.6c0-0.5-0.1-0.9-0.4-1.2
		S16.5,7.9,16,7.9c-0.7,0-1.1,0.3-1.4,0.8c-0.1,0.3-0.2,0.8-0.2,1.4h-2.2c0-1,0.2-1.7,0.5-2.3C13.3,6.5,14.3,6,15.9,6
		c1.2,0,2.2,0.3,2.9,1s1.1,1.5,1.1,2.6c0,0.8-0.3,1.6-0.8,2.2c-0.3,0.4-0.9,0.9-1.6,1.4l-0.9,0.6c-0.6,0.4-0.9,0.7-1.1,0.9
		c-0.2,0.2-0.4,0.4-0.5,0.6h4.9v2H12C12.1,16.5,12.2,15.8,12.6,15.1z"/>
</g>
</svg>
