<?xml version="1.0" encoding="utf-8"?>
<!-- Generator: Adobe Illustrator 25.2.1, SVG Export Plug-In . SVG Version: 6.00 Build 0)  -->
<svg version="1.1" id="Capa_1" xmlns="http://www.w3.org/2000/svg" xmlns:xlink="http://www.w3.org/1999/xlink" x="0px" y="0px"
	 viewBox="0 0 23.6 23.6" style="enable-background:new 0 0 23.6 23.6;" xml:space="preserve">
<style type="text/css">
	.st0{fill:#c5003e;}
	.st1{fill:none;}
	.st2{enable-background:new    ;}
	.st3{fill:#FFFFFF;}
</style>
<g>
	<circle class="st0" cx="11.8" cy="11.8" r="11.8"/>
</g>
<g>
	<rect x="6.2" y="5.1" class="st1" width="11.2" height="13.3"/>
</g>
<g class="st2">
	<path class="st3" d="M3.7,9.5V8C4.4,8,4.9,8,5.2,7.9C5.7,7.8,6,7.6,6.3,7.3c0.2-0.2,0.3-0.5,0.4-0.8C6.8,6.3,6.8,6.1,6.8,6h1.9
		v11.3H6.4V9.5H3.7z"/>
	<path class="st3" d="M14.1,13.9c0,0.5,0.1,0.8,0.2,1.1c0.3,0.5,0.8,0.8,1.5,0.8c0.4,0,0.8-0.1,1.1-0.4c0.3-0.3,0.5-0.7,0.5-1.3
		c0-0.7-0.3-1.2-0.9-1.5c-0.3-0.1-0.9-0.2-1.6-0.2v-1.6c0.7,0,1.2-0.1,1.5-0.2c0.5-0.2,0.7-0.7,0.7-1.3c0-0.4-0.1-0.8-0.4-1.1
		c-0.3-0.3-0.6-0.4-1.1-0.4c-0.5,0-0.9,0.2-1.2,0.5c-0.2,0.3-0.4,0.8-0.4,1.3h-2.1c0-0.6,0.1-1.1,0.3-1.6c0.2-0.4,0.5-0.9,0.9-1.2
		c0.3-0.3,0.6-0.5,1-0.6C14.7,6,15.2,6,15.8,6c1.1,0,2,0.3,2.6,0.8s1,1.3,1,2.3c0,0.7-0.2,1.2-0.6,1.7c-0.2,0.3-0.5,0.5-0.8,0.6
		c0.2,0,0.5,0.2,0.9,0.5c0.6,0.5,0.9,1.2,0.9,2.2c0,1-0.3,1.8-1,2.5c-0.7,0.7-1.6,1.1-2.9,1.1c-1.6,0-2.7-0.5-3.3-1.6
		c-0.3-0.6-0.5-1.3-0.5-2.2H14.1z"/>
</g>
</svg>
