<?xml version="1.0" encoding="utf-8"?>
<!-- Generator: Adobe Illustrator 25.2.1, SVG Export Plug-In . SVG Version: 6.00 Build 0)  -->
<svg version="1.1" id="Capa_1" xmlns="http://www.w3.org/2000/svg" xmlns:xlink="http://www.w3.org/1999/xlink" x="0px" y="0px"
	 viewBox="0 0 23.6 23.6" style="enable-background:new 0 0 23.6 23.6;" xml:space="preserve">
<style type="text/css">
	.st0{fill:#c5003e;}
	.st1{fill:none;}
	.st2{enable-background:new    ;}
	.st3{fill:#FFFFFF;}
</style>
<g>
	<circle class="st0" cx="11.8" cy="11.8" r="11.8"/>
</g>
<g>
	<rect x="6.2" y="5.1" class="st1" width="11.2" height="13.3"/>
</g>
<g class="st2">
	<path class="st3" d="M3.7,9.5V8C4.4,8,4.9,8,5.2,7.9C5.7,7.8,6,7.6,6.3,7.3c0.2-0.2,0.3-0.5,0.4-0.8C6.8,6.3,6.8,6.1,6.8,6h1.9
		v11.3H6.4V9.5H3.7z"/>
	<path class="st3" d="M19.9,14.9h-1.3v2.4h-2.2v-2.4H12V13l4.2-6.9h2.5v7.1h1.3V14.9z M16.4,13.2V8.3l-2.8,4.9H16.4z"/>
</g>
</svg>
