<?xml version="1.0" encoding="utf-8"?>
<!-- Generator: Adobe Illustrator 25.2.1, SVG Export Plug-In . SVG Version: 6.00 Build 0)  -->
<svg version="1.1" id="Capa_1" xmlns="http://www.w3.org/2000/svg" xmlns:xlink="http://www.w3.org/1999/xlink" x="0px" y="0px"
	 viewBox="0 0 23.6 23.6" style="enable-background:new 0 0 23.6 23.6;" xml:space="preserve">
<style type="text/css">
	.st0{fill:#c5003e;}
	.st1{fill:none;}
	.st2{enable-background:new    ;}
	.st3{fill:#FFFFFF;}
</style>
<g>
	<circle class="st0" cx="11.8" cy="11.8" r="11.8"/>
</g>
<g>
	<rect x="6.2" y="5.1" class="st1" width="11.2" height="13.3"/>
</g>
<g class="st2">
	<path class="st3" d="M3.7,9.5V8C4.4,8,4.9,8,5.2,7.9C5.7,7.8,6,7.6,6.3,7.3c0.2-0.2,0.3-0.5,0.4-0.8C6.8,6.3,6.8,6.1,6.8,6h1.9
		v11.3H6.4V9.5H3.7z"/>
	<path class="st3" d="M14.2,14.3c0.1,0.5,0.3,0.9,0.5,1.1c0.2,0.3,0.6,0.4,1.1,0.4c0.6,0,1-0.2,1.3-0.6s0.4-0.9,0.4-1.5
		c0-0.6-0.1-1.1-0.4-1.5c-0.3-0.4-0.7-0.6-1.3-0.6c-0.3,0-0.5,0-0.7,0.1c-0.3,0.1-0.6,0.4-0.8,0.7l-2-0.1l0.8-6.3h6.2v1.9h-4.6
		l-0.4,2.5c0.3-0.2,0.6-0.4,0.8-0.4c0.3-0.1,0.7-0.2,1.2-0.2c0.9,0,1.8,0.3,2.4,0.9s1,1.5,1,2.8c0,1-0.3,2-1,2.8
		c-0.7,0.8-1.7,1.2-3,1.2c-1.1,0-2-0.3-2.7-0.9c-0.7-0.6-1.1-1.4-1.2-2.5H14.2z"/>
</g>
</svg>
